<svg width="20" height="20" viewBox="0 0 20 20" fill="none" xmlns="http://www.w3.org/2000/svg">
<path id="Vector" d="M15 3.5H19.5V4.5H0.5V3.5H5H5.5V3V1C5.5 0.867392 5.55268 0.740215 5.64645 0.646447C5.74021 0.552678 5.86739 0.5 6 0.5H14C14.1326 0.5 14.2598 0.552679 14.3536 0.646447C14.4473 0.740214 14.5 0.867391 14.5 1V3V3.5H15ZM7 1.5H6.5V2V3V3.5H7H13H13.5V3V2V1.5H13H7ZM7 9.5H6.5V10V16V16.5H7H9H9.5V16V10V9.5H9H7ZM11 9.5H10.5V10V16V16.5H11H13H13.5V16V10V9.5H13H11ZM2.5 6.5H17.5V19C17.5 19.1326 17.4473 19.2598 17.3536 19.3536C17.2598 19.4473 17.1326 19.5 17 19.5H3C2.86739 19.5 2.74021 19.4473 2.64645 19.3536C2.55268 19.2598 2.5 19.1326 2.5 19V6.5Z" fill="#EDEDED" stroke="#3C3C3C"/>
</svg>
