<svg width="212" height="176" viewBox="0 0 212 176" fill="none" xmlns="http://www.w3.org/2000/svg">
<path d="M95.123 109C94.8952 109 94.7812 108.878 94.7812 108.634V102.364C94.7812 102.12 94.8952 101.998 95.123 101.998H95.8457C96.1257 101.998 96.3372 102.112 96.4805 102.34L98.9707 106.339H99.0049C98.9886 106.144 98.9805 105.948 98.9805 105.753V102.364C98.9805 102.12 99.0944 101.998 99.3223 101.998H100.064C100.292 101.998 100.406 102.12 100.406 102.364V108.634C100.406 108.878 100.292 109 100.064 109H99.3906C99.1107 109 98.8991 108.886 98.7559 108.658L96.2168 104.586H96.1826C96.1989 104.781 96.207 104.977 96.207 105.172V108.634C96.207 108.878 96.0931 109 95.8652 109H95.123ZM101.842 106.871V104.166C101.842 103.971 101.939 103.873 102.135 103.873H102.916C103.111 103.873 103.209 103.971 103.209 104.166V106.52C103.209 107.229 103.258 107.677 103.355 107.862C103.453 108.048 103.658 108.141 103.971 108.141C104.303 108.141 104.555 108.009 104.728 107.745C104.9 107.478 104.986 106.926 104.986 106.09V104.166C104.986 103.971 105.084 103.873 105.279 103.873H106.061C106.256 103.873 106.354 103.971 106.354 104.166V108.707C106.354 108.902 106.256 109 106.061 109H105.289C105.094 109 104.996 108.902 104.996 108.707V108.424H104.977C104.827 108.681 104.636 108.858 104.405 108.956C104.174 109.05 103.901 109.098 103.585 109.098C103.087 109.098 102.672 108.938 102.34 108.619C102.008 108.3 101.842 107.717 101.842 106.871ZM107.975 109C107.779 109 107.682 108.902 107.682 108.707V104.166C107.682 103.971 107.779 103.873 107.975 103.873H108.746C108.941 103.873 109.039 103.971 109.039 104.166V104.449H109.059C109.153 104.241 109.312 104.076 109.537 103.956C109.762 103.836 109.972 103.775 110.167 103.775C110.558 103.775 110.86 103.867 111.075 104.049C111.293 104.231 111.443 104.435 111.524 104.659H111.544C111.827 104.291 112.083 104.052 112.311 103.941C112.542 103.831 112.836 103.775 113.194 103.775C113.676 103.775 114.081 103.935 114.41 104.254C114.742 104.573 114.908 105.156 114.908 106.002V108.707C114.908 108.902 114.811 109 114.615 109H113.834C113.639 109 113.541 108.902 113.541 108.707V106.354C113.541 105.644 113.492 105.196 113.395 105.011C113.3 104.825 113.131 104.732 112.887 104.732C112.659 104.732 112.451 104.866 112.262 105.133C112.073 105.4 111.979 105.95 111.979 106.783V108.707C111.979 108.902 111.881 109 111.686 109H110.904C110.709 109 110.611 108.902 110.611 108.707V106.354C110.611 105.644 110.562 105.196 110.465 105.011C110.37 104.825 110.201 104.732 109.957 104.732C109.729 104.732 109.521 104.866 109.332 105.133C109.143 105.396 109.049 105.947 109.049 106.783V108.707C109.049 108.902 108.951 109 108.756 109H107.975ZM116.52 109C116.324 109 116.227 108.902 116.227 108.707V102.086C116.227 101.891 116.324 101.793 116.52 101.793H117.301C117.496 101.793 117.594 101.891 117.594 102.086V104.059C117.594 104.189 117.587 104.319 117.574 104.449H117.594C117.763 104.169 117.952 103.987 118.16 103.902C118.368 103.818 118.619 103.775 118.912 103.775C119.677 103.775 120.214 104.041 120.523 104.571C120.836 105.099 120.992 105.72 120.992 106.437C120.992 107.153 120.836 107.776 120.523 108.307C120.214 108.834 119.677 109.098 118.912 109.098C118.619 109.098 118.368 109.055 118.16 108.971C117.952 108.886 117.763 108.704 117.594 108.424H117.574L117.555 108.707C117.542 108.902 117.454 109 117.291 109H116.52ZM117.594 106.656C117.594 107.096 117.68 107.454 117.853 107.73C118.028 108.004 118.238 108.141 118.482 108.141C118.922 108.141 119.208 107.988 119.342 107.682C119.479 107.372 119.547 106.957 119.547 106.437C119.547 105.916 119.479 105.502 119.342 105.196C119.208 104.887 118.922 104.732 118.482 104.732C118.238 104.732 118.028 104.871 117.853 105.147C117.68 105.421 117.594 105.777 117.594 106.217V106.656ZM121.773 106.437C121.773 105.613 121.979 104.964 122.389 104.488C122.802 104.013 123.385 103.775 124.137 103.775C125.009 103.775 125.657 104 126.08 104.449C126.503 104.898 126.715 105.621 126.715 106.617C126.715 106.812 126.624 106.91 126.441 106.91H123.219C123.271 107.451 123.404 107.791 123.619 107.931C123.834 108.071 124.083 108.141 124.366 108.141C124.636 108.141 124.843 108.105 124.986 108.033C125.13 107.962 125.25 107.864 125.348 107.74C125.458 107.597 125.595 107.574 125.758 107.672L126.246 107.97C126.438 108.087 126.466 108.227 126.329 108.39C126.131 108.627 125.898 108.805 125.631 108.922C125.364 109.039 124.942 109.098 124.366 109.098C123.432 109.098 122.766 108.86 122.369 108.385C121.972 107.91 121.773 107.26 121.773 106.437ZM123.224 105.934H125.348C125.348 105.582 125.26 105.296 125.084 105.074C124.908 104.85 124.628 104.737 124.244 104.737C123.938 104.737 123.696 104.845 123.517 105.06C123.338 105.271 123.24 105.562 123.224 105.934ZM128.072 109C127.877 109 127.779 108.902 127.779 108.707V104.166C127.779 103.971 127.877 103.873 128.072 103.873H128.844C129.039 103.873 129.137 103.971 129.137 104.166V104.566H129.156C129.241 104.358 129.382 104.174 129.581 104.015C129.78 103.855 130.014 103.775 130.284 103.775C130.47 103.775 130.623 103.798 130.743 103.844C130.857 103.886 130.901 103.964 130.875 104.078L130.738 104.659C130.709 104.789 130.621 104.828 130.475 104.776C130.39 104.747 130.309 104.732 130.23 104.732C129.918 104.732 129.659 104.92 129.454 105.294C129.249 105.668 129.146 106.214 129.146 106.93V108.707C129.146 108.902 129.049 109 128.854 109H128.072ZM131.515 108.658C131.355 108.544 131.311 108.422 131.383 108.292L131.632 107.838C131.72 107.675 131.856 107.656 132.042 107.779C132.228 107.903 132.446 107.994 132.696 108.053C132.95 108.111 133.181 108.141 133.39 108.141C133.536 108.141 133.673 108.126 133.8 108.097C133.927 108.067 134.034 108.01 134.122 107.926C134.21 107.841 134.254 107.717 134.254 107.555C134.254 107.457 134.228 107.374 134.176 107.306C134.124 107.237 134.057 107.185 133.976 107.149C133.894 107.114 133.808 107.084 133.717 107.062C133.596 107.032 133.422 106.983 133.194 106.915C132.97 106.847 132.753 106.767 132.545 106.676C132.372 106.601 132.203 106.497 132.037 106.363C131.874 106.227 131.754 106.075 131.676 105.909C131.601 105.743 131.563 105.538 131.563 105.294C131.563 104.965 131.658 104.677 131.847 104.43C132.039 104.182 132.286 104.011 132.589 103.917C132.892 103.823 133.269 103.775 133.722 103.775C134.028 103.775 134.326 103.819 134.615 103.907C134.905 103.995 135.112 104.078 135.235 104.156C135.431 104.28 135.479 104.412 135.382 104.552L135.084 104.986C134.993 105.117 134.846 105.126 134.645 105.016C134.492 104.931 134.34 104.863 134.19 104.811C134.044 104.758 133.88 104.732 133.697 104.732C133.574 104.732 133.455 104.745 133.341 104.771C133.227 104.798 133.129 104.846 133.048 104.918C132.97 104.99 132.931 105.084 132.931 105.201C132.931 105.325 132.966 105.423 133.038 105.494C133.113 105.562 133.198 105.613 133.292 105.646C133.39 105.678 133.482 105.709 133.57 105.738C133.753 105.797 133.937 105.854 134.122 105.909C134.308 105.961 134.496 106.025 134.688 106.1C134.854 106.165 135.016 106.257 135.172 106.378C135.328 106.498 135.442 106.651 135.514 106.837C135.585 107.022 135.621 107.234 135.621 107.472C135.621 107.787 135.527 108.08 135.338 108.351C135.149 108.621 134.9 108.813 134.591 108.927C134.282 109.041 133.922 109.098 133.512 109.098C133.053 109.098 132.662 109.065 132.34 109C132.018 108.935 131.743 108.821 131.515 108.658ZM139.776 104.85C139.584 104.85 139.488 104.768 139.488 104.605V104.117C139.488 103.954 139.584 103.873 139.776 103.873H140.108V103.702C140.108 103.556 140.143 103.422 140.211 103.302L140.587 102.643C140.659 102.519 140.743 102.457 140.841 102.457H141.183C141.378 102.457 141.476 102.555 141.476 102.75V103.873H142.267C142.459 103.873 142.555 103.954 142.555 104.117V104.605C142.555 104.768 142.459 104.85 142.267 104.85H141.476V107.271C141.476 107.604 141.498 107.843 141.544 107.989C141.593 108.132 141.716 108.204 141.915 108.204C142.016 108.204 142.13 108.188 142.257 108.155C142.384 108.119 142.483 108.085 142.555 108.053C142.669 108.001 142.743 108.038 142.779 108.165L142.926 108.722C142.955 108.832 142.913 108.914 142.799 108.966C142.691 109.015 142.543 109.059 142.354 109.098C142.169 109.14 141.982 109.161 141.793 109.161C141.327 109.161 140.93 109.065 140.602 108.873C140.273 108.681 140.108 108.285 140.108 107.687V104.85H139.776ZM143.57 106.437C143.57 105.606 143.784 104.955 144.21 104.483C144.64 104.011 145.278 103.775 146.124 103.775C146.97 103.775 147.607 104.011 148.033 104.483C148.463 104.955 148.678 105.606 148.678 106.437C148.678 107.267 148.463 107.918 148.033 108.39C147.607 108.862 146.97 109.098 146.124 109.098C145.278 109.098 144.64 108.862 144.21 108.39C143.784 107.918 143.57 107.267 143.57 106.437ZM145.016 106.437C145.016 107.055 145.11 107.494 145.299 107.755C145.491 108.012 145.766 108.141 146.124 108.141C146.482 108.141 146.756 108.012 146.944 107.755C147.136 107.494 147.232 107.055 147.232 106.437C147.232 105.818 147.136 105.38 146.944 105.123C146.756 104.863 146.482 104.732 146.124 104.732C145.766 104.732 145.491 104.863 145.299 105.123C145.11 105.38 145.016 105.818 145.016 106.437ZM153.351 108.478C153.149 108.325 153.1 108.17 153.204 108.014L153.58 107.447C153.704 107.262 153.884 107.252 154.122 107.418C154.304 107.545 154.542 107.677 154.835 107.813C155.131 107.947 155.442 108.014 155.768 108.014C155.995 108.014 156.215 107.988 156.427 107.936C156.638 107.883 156.799 107.783 156.91 107.633C157.021 107.483 157.076 107.306 157.076 107.101C157.076 106.954 157.052 106.826 157.003 106.715C156.954 106.604 156.874 106.513 156.764 106.441C156.653 106.37 156.539 106.31 156.422 106.261C156.217 106.176 155.958 106.093 155.646 106.012C155.336 105.927 155.03 105.826 154.728 105.709C154.457 105.605 154.21 105.462 153.985 105.279C153.761 105.097 153.587 104.892 153.463 104.664C153.339 104.436 153.277 104.132 153.277 103.751C153.277 103.299 153.424 102.911 153.717 102.589C154.01 102.267 154.347 102.06 154.728 101.969C155.108 101.878 155.493 101.832 155.88 101.832C156.264 101.832 156.66 101.891 157.066 102.008C157.477 102.125 157.786 102.271 157.994 102.447C158.199 102.62 158.25 102.776 158.146 102.916L157.75 103.448C157.617 103.631 157.438 103.645 157.213 103.492C157.07 103.395 156.873 103.285 156.622 103.165C156.375 103.045 156.116 102.984 155.846 102.984C155.654 102.984 155.476 103.001 155.313 103.033C155.154 103.066 155.012 103.144 154.889 103.268C154.765 103.391 154.703 103.544 154.703 103.727C154.703 103.902 154.749 104.046 154.84 104.156C154.931 104.264 155.032 104.345 155.143 104.4C155.253 104.452 155.366 104.496 155.479 104.532C155.831 104.646 156.145 104.747 156.422 104.835C156.699 104.92 156.954 105.014 157.188 105.118C157.514 105.265 157.763 105.411 157.936 105.558C158.108 105.704 158.25 105.904 158.36 106.158C158.474 106.412 158.531 106.715 158.531 107.066C158.531 107.587 158.365 108.019 158.033 108.36C157.701 108.699 157.332 108.917 156.925 109.015C156.521 109.116 156.127 109.166 155.743 109.166C155.177 109.166 154.716 109.111 154.361 109C154.007 108.893 153.67 108.718 153.351 108.478ZM159.366 104.85C159.174 104.85 159.078 104.768 159.078 104.605V104.117C159.078 103.954 159.174 103.873 159.366 103.873H159.698V103.702C159.698 103.556 159.732 103.422 159.801 103.302L160.177 102.643C160.248 102.519 160.333 102.457 160.431 102.457H160.772C160.968 102.457 161.065 102.555 161.065 102.75V103.873H161.856C162.049 103.873 162.145 103.954 162.145 104.117V104.605C162.145 104.768 162.049 104.85 161.856 104.85H161.065V107.271C161.065 107.604 161.088 107.843 161.134 107.989C161.183 108.132 161.306 108.204 161.505 108.204C161.606 108.204 161.72 108.188 161.847 108.155C161.974 108.119 162.073 108.085 162.145 108.053C162.258 108.001 162.333 108.038 162.369 108.165L162.516 108.722C162.545 108.832 162.503 108.914 162.389 108.966C162.281 109.015 162.133 109.059 161.944 109.098C161.759 109.14 161.572 109.161 161.383 109.161C160.917 109.161 160.52 109.065 160.191 108.873C159.863 108.681 159.698 108.285 159.698 107.687V104.85H159.366ZM163.727 109C163.531 109 163.434 108.902 163.434 108.707V104.166C163.434 103.971 163.531 103.873 163.727 103.873H164.498C164.693 103.873 164.791 103.971 164.791 104.166V104.566H164.811C164.895 104.358 165.037 104.174 165.235 104.015C165.434 103.855 165.668 103.775 165.938 103.775C166.124 103.775 166.277 103.798 166.397 103.844C166.511 103.886 166.555 103.964 166.529 104.078L166.393 104.659C166.363 104.789 166.275 104.828 166.129 104.776C166.044 104.747 165.963 104.732 165.885 104.732C165.572 104.732 165.313 104.92 165.108 105.294C164.903 105.668 164.801 106.214 164.801 106.93V108.707C164.801 108.902 164.703 109 164.508 109H163.727ZM166.998 107.633C166.998 106.982 167.309 106.51 167.931 106.217C168.552 105.924 169.262 105.768 170.06 105.748V105.553C170.06 105.253 169.985 105.042 169.835 104.918C169.685 104.794 169.477 104.732 169.21 104.732C169.021 104.732 168.854 104.76 168.707 104.815C168.564 104.868 168.438 104.929 168.331 105.001C168.227 105.069 168.132 105.139 168.048 105.211C167.898 105.341 167.774 105.348 167.677 105.23L167.271 104.732C167.171 104.609 167.195 104.482 167.345 104.352C167.459 104.251 167.59 104.163 167.74 104.088C167.893 104.013 168.095 103.943 168.346 103.878C168.596 103.81 168.922 103.775 169.322 103.775C169.999 103.775 170.519 103.932 170.88 104.244C171.244 104.557 171.427 105.017 171.427 105.626V108.707C171.427 108.902 171.329 109 171.134 109H170.333C170.157 109 170.069 108.902 170.069 108.707V108.561H170.06C169.868 108.746 169.636 108.883 169.366 108.971C169.099 109.055 168.854 109.098 168.629 109.098C168.095 109.098 167.69 108.967 167.413 108.707C167.136 108.443 166.998 108.085 166.998 107.633ZM168.443 107.604C168.443 107.717 168.466 107.817 168.512 107.901C168.557 107.983 168.629 108.043 168.727 108.082C168.824 108.121 168.933 108.141 169.054 108.141C169.22 108.141 169.381 108.118 169.537 108.072C169.693 108.027 169.868 107.919 170.06 107.75V106.69C169.513 106.752 169.146 106.832 168.961 106.93C168.775 107.027 168.642 107.128 168.561 107.232C168.482 107.337 168.443 107.46 168.443 107.604ZM172.589 104.85C172.397 104.85 172.301 104.768 172.301 104.605V104.117C172.301 103.954 172.397 103.873 172.589 103.873H172.921V103.702C172.921 103.556 172.955 103.422 173.023 103.302L173.399 102.643C173.471 102.519 173.556 102.457 173.653 102.457H173.995C174.19 102.457 174.288 102.555 174.288 102.75V103.873H175.079C175.271 103.873 175.367 103.954 175.367 104.117V104.605C175.367 104.768 175.271 104.85 175.079 104.85H174.288V107.271C174.288 107.604 174.311 107.843 174.356 107.989C174.405 108.132 174.529 108.204 174.728 108.204C174.828 108.204 174.942 108.188 175.069 108.155C175.196 108.119 175.296 108.085 175.367 108.053C175.481 108.001 175.556 108.038 175.592 108.165L175.738 108.722C175.768 108.832 175.725 108.914 175.611 108.966C175.504 109.015 175.356 109.059 175.167 109.098C174.981 109.14 174.794 109.161 174.605 109.161C174.14 109.161 173.743 109.065 173.414 108.873C173.085 108.681 172.921 108.285 172.921 107.687V104.85H172.589ZM176.383 106.437C176.383 105.613 176.588 104.964 176.998 104.488C177.411 104.013 177.994 103.775 178.746 103.775C179.618 103.775 180.266 104 180.689 104.449C181.113 104.898 181.324 105.621 181.324 106.617C181.324 106.812 181.233 106.91 181.051 106.91H177.828C177.88 107.451 178.014 107.791 178.229 107.931C178.443 108.071 178.692 108.141 178.976 108.141C179.246 108.141 179.452 108.105 179.596 108.033C179.739 107.962 179.859 107.864 179.957 107.74C180.068 107.597 180.204 107.574 180.367 107.672L180.855 107.97C181.048 108.087 181.075 108.227 180.938 108.39C180.74 108.627 180.507 108.805 180.24 108.922C179.973 109.039 179.552 109.098 178.976 109.098C178.041 109.098 177.376 108.86 176.979 108.385C176.581 107.91 176.383 107.26 176.383 106.437ZM177.833 105.934H179.957C179.957 105.582 179.869 105.296 179.693 105.074C179.518 104.85 179.238 104.737 178.854 104.737C178.548 104.737 178.305 104.845 178.126 105.06C177.947 105.271 177.849 105.562 177.833 105.934ZM182.115 106.437C182.115 105.72 182.27 105.099 182.579 104.571C182.892 104.041 183.43 103.775 184.195 103.775C184.488 103.775 184.739 103.818 184.947 103.902C185.156 103.987 185.344 104.169 185.514 104.449H185.533L185.553 104.166C185.566 103.971 185.654 103.873 185.816 103.873H186.588C186.783 103.873 186.881 103.971 186.881 104.166V108.946C186.881 109.744 186.666 110.294 186.236 110.597C185.807 110.899 185.185 111.051 184.371 111.051C184.026 111.051 183.707 111.033 183.414 110.997C183.121 110.961 182.825 110.872 182.525 110.729C182.369 110.654 182.343 110.512 182.447 110.304L182.623 109.952C182.695 109.809 182.813 109.776 182.979 109.854C183.113 109.916 183.277 109.972 183.473 110.021C183.671 110.069 183.922 110.094 184.225 110.094C184.641 110.094 184.96 110.016 185.182 109.859C185.403 109.706 185.514 109.369 185.514 108.849V108.766C185.514 108.635 185.52 108.505 185.533 108.375H185.514C185.344 108.655 185.156 108.837 184.947 108.922C184.739 109.007 184.488 109.049 184.195 109.049C183.43 109.049 182.892 108.785 182.579 108.258C182.27 107.727 182.115 107.12 182.115 106.437ZM183.561 106.437C183.561 106.925 183.627 107.324 183.761 107.633C183.897 107.939 184.186 108.092 184.625 108.092C184.869 108.092 185.077 107.955 185.25 107.682C185.426 107.405 185.514 107.047 185.514 106.607V106.217C185.514 105.777 185.426 105.421 185.25 105.147C185.077 104.871 184.869 104.732 184.625 104.732C184.186 104.732 183.897 104.887 183.761 105.196C183.627 105.502 183.561 105.916 183.561 106.437ZM187.892 104.254C187.804 104 187.857 103.873 188.053 103.873H188.927C189.076 103.873 189.174 103.956 189.22 104.122L189.957 106.852C189.993 106.979 190.024 107.143 190.05 107.345C190.079 107.543 190.094 107.67 190.094 107.726H190.123C190.162 107.553 190.19 107.416 190.206 107.315C190.226 107.211 190.276 107.011 190.357 106.715L191.056 104.122C191.101 103.956 191.199 103.873 191.349 103.873H192.223C192.415 103.873 192.468 104 192.384 104.254L190.738 109.205C190.546 109.785 190.31 110.237 190.03 110.562C189.75 110.888 189.361 111.051 188.863 111.051C188.59 111.051 188.346 111.028 188.131 110.982C188.007 110.956 187.96 110.872 187.989 110.729L188.097 110.191C188.126 110.051 188.209 110.003 188.346 110.045C188.447 110.077 188.541 110.094 188.629 110.094C188.893 110.094 189.093 109.968 189.229 109.718C189.369 109.467 189.462 109.252 189.508 109.073L189.522 109L187.892 104.254Z" fill="#8F8C8C"/>
<g filter="url(#filter0_d_1_73)">
<path fill-rule="evenodd" clip-rule="evenodd" d="M100.449 72H82.0298H78.0828V75.6024V81.8105H76V86.1849H78.0828V91.4622V95.4802V95.4828H100.449V91.4622H82.0298V86.1849H98.8478V81.8105H82.0298V75.6024H100.449V72Z" fill="url(#paint0_linear_1_73)"/>
</g>
<path fill-rule="evenodd" clip-rule="evenodd" d="M110 74.3105C110 73.0344 111.034 72 112.31 72C113.081 72 113.764 72.3773 114.183 72.9573C114.89 72.8781 115.623 73.1256 116.141 73.6898L129.319 88.0338V74.4067C129.319 73.0775 130.396 72 131.725 72C133.055 72 134.132 73.0775 134.132 74.4067V93.1378C134.132 94.467 133.055 95.5445 131.725 95.5445C131.014 95.5445 130.374 95.2357 129.934 94.7448C129.415 94.6771 128.916 94.4333 128.534 94.0174L114.621 78.8725V94.006C114.621 95.2821 113.586 96.3165 112.31 96.3165C111.034 96.3165 110 95.2821 110 94.006V74.3105Z" fill="url(#paint1_linear_1_73)"/>
<path fill-rule="evenodd" clip-rule="evenodd" d="M163.752 73H141V77.4066H150.76L150.723 96.1287L155.119 96.1375L155.156 77.4066H163.752V73Z" fill="url(#paint2_linear_1_73)"/>
<path fill-rule="evenodd" clip-rule="evenodd" d="M53.5356 71H58.1244H69.9654V74.8919H58.1244V81.8392H68.8097V86.1815H58.1244V96.7317H53.5356V86.1815H51V81.8392H53.5356V74.8919V71Z" fill="url(#paint3_linear_1_73)"/>
<path d="M198.467 89.5432H204.468V103.856H198.467V89.5432Z" fill="url(#paint4_linear_1_73)"/>
<path fill-rule="evenodd" clip-rule="evenodd" d="M189.872 72.0003C189.275 72.0093 188.707 72.2599 188.298 72.695L179.578 81.955C179.46 81.6571 179.28 81.3782 179.039 81.1376L170.602 72.7155C170.183 72.298 169.61 72.0752 169.02 72.1014C167.236 72.1805 166.351 74.3072 167.55 75.6337L175.546 84.478C175.89 84.8586 176.326 85.1032 176.788 85.2105V95.2533H181.762V86.0504C181.861 85.9757 181.955 85.8917 182.043 85.7985L191.516 75.7392C192.858 74.3136 191.828 71.9706 189.872 72.0003Z" fill="url(#paint5_linear_1_73)"/>
<path d="M201.693 82.0714L210.163 90.2411H193.222L201.693 82.0714Z" fill="#0D4577"/>
<defs>
<filter id="filter0_d_1_73" x="0.400002" y="0.400002" width="175.649" height="174.683" filterUnits="userSpaceOnUse" color-interpolation-filters="sRGB">
<feFlood flood-opacity="0" result="BackgroundImageFix"/>
<feColorMatrix in="SourceAlpha" type="matrix" values="0 0 0 0 0 0 0 0 0 0 0 0 0 0 0 0 0 0 127 0" result="hardAlpha"/>
<feOffset dy="4"/>
<feGaussianBlur stdDeviation="37.8"/>
<feComposite in2="hardAlpha" operator="out"/>
<feColorMatrix type="matrix" values="0 0 0 0 0 0 0 0 0 0 0 0 0 0 0 0 0 0 0.25 0"/>
<feBlend mode="normal" in2="BackgroundImageFix" result="effect1_dropShadow_1_73"/>
<feBlend mode="normal" in="SourceGraphic" in2="effect1_dropShadow_1_73" result="shape"/>
</filter>
<linearGradient id="paint0_linear_1_73" x1="76" y1="83.527" x2="100.451" y2="83.8171" gradientUnits="userSpaceOnUse">
<stop stop-color="#09316E"/>
<stop offset="1" stop-color="#729CDC"/>
</linearGradient>
<linearGradient id="paint1_linear_1_73" x1="110" y1="83.9362" x2="134.134" y2="84.2092" gradientUnits="userSpaceOnUse">
<stop stop-color="#09316E"/>
<stop offset="1" stop-color="#729CDC"/>
</linearGradient>
<linearGradient id="paint2_linear_1_73" x1="141" y1="84.3575" x2="163.753" y2="84.6125" gradientUnits="userSpaceOnUse">
<stop stop-color="#09316E"/>
<stop offset="1" stop-color="#729CDC"/>
</linearGradient>
<linearGradient id="paint3_linear_1_73" x1="51" y1="83.6309" x2="69.9681" y2="83.7903" gradientUnits="userSpaceOnUse">
<stop stop-color="#09316E"/>
<stop offset="1" stop-color="#729CDC"/>
</linearGradient>
<linearGradient id="paint4_linear_1_73" x1="198.467" y1="96.5692" x2="204.469" y2="96.5978" gradientUnits="userSpaceOnUse">
<stop stop-color="#09316E"/>
<stop offset="1" stop-color="#729CDC"/>
</linearGradient>
<linearGradient id="paint5_linear_1_73" x1="167" y1="83.4143" x2="192.125" y2="83.7237" gradientUnits="userSpaceOnUse">
<stop stop-color="#09316E"/>
<stop offset="1" stop-color="#729CDC"/>
</linearGradient>
</defs>
</svg>
