<svg width="31" height="31" viewBox="0 0 31 31" fill="none" xmlns="http://www.w3.org/2000/svg">
<path id="Vector" d="M5.9675 23.405C7.285 22.3975 8.7575 21.6029 10.385 21.0211C12.0125 20.4404 13.7175 20.15 15.5 20.15C17.2825 20.15 18.9875 20.4404 20.615 21.0211C22.2425 21.6029 23.715 22.3975 25.0325 23.405C25.9367 22.3458 26.6409 21.1446 27.1451 19.8012C27.6484 18.4579 27.9 17.0242 27.9 15.5C27.9 12.0642 26.6925 9.13828 24.2776 6.72235C21.8617 4.30745 18.9358 3.1 15.5 3.1C12.0642 3.1 9.1388 4.30745 6.7239 6.72235C4.30797 9.13828 3.1 12.0642 3.1 15.5C3.1 17.0242 3.35213 18.4579 3.8564 19.8012C4.35963 21.1446 5.06333 22.3458 5.9675 23.405ZM15.5 17.05C13.9758 17.05 12.6904 16.5271 11.6436 15.4814C10.5979 14.4346 10.075 13.1492 10.075 11.625C10.075 10.1008 10.5979 8.81537 11.6436 7.7686C12.6904 6.72287 13.9758 6.2 15.5 6.2C17.0242 6.2 18.3096 6.72287 19.3564 7.7686C20.4021 8.81537 20.925 10.1008 20.925 11.625C20.925 13.1492 20.4021 14.4346 19.3564 15.4814C18.3096 16.5271 17.0242 17.05 15.5 17.05ZM15.5 31C13.3558 31 11.3408 30.5929 9.455 29.7786C7.56917 28.9654 5.92875 27.8613 4.53375 26.4663C3.13875 25.0713 2.03463 23.4308 1.2214 21.545C0.407133 19.6592 0 17.6442 0 15.5C0 13.3558 0.407133 11.3408 1.2214 9.455C2.03463 7.56917 3.13875 5.92875 4.53375 4.53375C5.92875 3.13875 7.56917 2.03412 9.455 1.21985C11.3408 0.406617 13.3558 0 15.5 0C17.6442 0 19.6592 0.406617 21.545 1.21985C23.4308 2.03412 25.0713 3.13875 26.4663 4.53375C27.8613 5.92875 28.9654 7.56917 29.7786 9.455C30.5929 11.3408 31 13.3558 31 15.5C31 17.6442 30.5929 19.6592 29.7786 21.545C28.9654 23.4308 27.8613 25.0713 26.4663 26.4663C25.0713 27.8613 23.4308 28.9654 21.545 29.7786C19.6592 30.5929 17.6442 31 15.5 31Z" fill="#3A3A3A"/>
</svg>
