<svg width="37" height="37" viewBox="0 0 37 37" fill="none" xmlns="http://www.w3.org/2000/svg">
<g id="Group">
<path id="Vector" d="M29.5071 19.9491C29.5688 19.4866 29.5996 19.0087 29.5996 18.5C29.5996 18.0066 29.5688 17.5133 29.4917 17.0508L32.6213 14.615C32.8988 14.3991 32.9759 13.9829 32.8063 13.6745L29.8463 8.5562C29.6613 8.21703 29.2759 8.10912 28.9367 8.21703L25.2521 9.69703C24.4813 9.1112 23.6642 8.61787 22.7546 8.24787L22.1996 4.33203C22.1379 3.96203 21.8296 3.69995 21.4596 3.69995H15.5396C15.1696 3.69995 14.8767 3.96203 14.815 4.33203L14.26 8.24787C13.3504 8.61787 12.5179 9.12662 11.7625 9.69703L8.07793 8.21703C7.73877 8.0937 7.35335 8.21703 7.16835 8.5562L4.22377 13.6745C4.03877 13.9983 4.10043 14.3991 4.40877 14.615L7.53835 17.0508C7.46127 17.5133 7.3996 18.022 7.3996 18.5C7.3996 18.9779 7.43043 19.4866 7.50752 19.9491L4.37793 22.385C4.10043 22.6008 4.02335 23.017 4.19293 23.3254L7.15293 28.4437C7.33793 28.7829 7.72335 28.8908 8.06252 28.7829L11.7471 27.3029C12.5179 27.8887 13.335 28.382 14.2446 28.752L14.7996 32.6679C14.8767 33.0379 15.1696 33.3 15.5396 33.3H21.4596C21.8296 33.3 22.1379 33.0379 22.1842 32.6679L22.7392 28.752C23.6488 28.382 24.4813 27.8887 25.2367 27.3029L28.9213 28.7829C29.2604 28.9062 29.6459 28.7829 29.8309 28.4437L32.7909 23.3254C32.9759 22.9862 32.8988 22.6008 32.6058 22.385L29.5071 19.9491ZM18.4996 24.05C15.4471 24.05 12.9496 21.5525 12.9496 18.5C12.9496 15.4475 15.4471 12.95 18.4996 12.95C21.5521 12.95 24.0496 15.4475 24.0496 18.5C24.0496 21.5525 21.5521 24.05 18.4996 24.05Z" fill="#5A5A5A"/>
</g>
</svg>
