<svg width="16" height="13" viewBox="0 0 16 13" fill="none" xmlns="http://www.w3.org/2000/svg">
<path id="Vector" d="M9.84211 12C9.84211 10.3793 7.86295 9.06667 5.42105 9.06667C2.97916 9.06667 1 10.3793 1 12M12.7895 9.8V7.6M12.7895 7.6V5.4M12.7895 7.6H10.5789M12.7895 7.6H15M5.42105 6.86667C4.63936 6.86667 3.88969 6.55762 3.33695 6.00751C2.78421 5.45741 2.47368 4.7113 2.47368 3.93333C2.47368 3.15536 2.78421 2.40926 3.33695 1.85915C3.88969 1.30905 4.63936 1 5.42105 1C6.20274 1 6.95242 1.30905 7.50516 1.85915C8.0579 2.40926 8.36842 3.15536 8.36842 3.93333C8.36842 4.7113 8.0579 5.45741 7.50516 6.00751C6.95242 6.55762 6.20274 6.86667 5.42105 6.86667Z" stroke="#3F51B5" stroke-linecap="round" stroke-linejoin="round"/>
</svg>
