<svg width="20" height="14" viewBox="0 0 20 14" fill="none" xmlns="http://www.w3.org/2000/svg">
<path id="Vector" d="M16.49 4.5C16.49 5.60647 15.6012 6.5 14.5 6.5C13.9696 6.5 13.4609 6.28929 13.0858 5.91421C12.7107 5.53914 12.5 5.03043 12.5 4.5C12.5 3.96957 12.7107 3.46086 13.0858 3.08579C13.4609 2.71071 13.9696 2.5 14.5 2.5C15.6012 2.5 16.49 3.39353 16.49 4.5ZM9.49 3C9.49 4.38604 8.38168 5.5 7 5.5C5.61614 5.5 4.5 4.38386 4.5 3C4.5 1.61614 5.61614 0.5 7 0.5C8.38168 0.5 9.49 1.61396 9.49 3ZM9.5 11.75C9.5 11.4763 9.63323 11.1996 9.94096 10.9159C10.2521 10.629 10.7069 10.3701 11.2495 10.153C12.3357 9.71827 13.6475 9.5 14.5 9.5C15.3525 9.5 16.6643 9.71827 17.7505 10.153C18.2931 10.3701 18.7479 10.629 19.059 10.9159C19.3668 11.1996 19.5 11.4763 19.5 11.75V13C19.5 13.2739 19.2739 13.5 19 13.5H10C9.72614 13.5 9.5 13.2739 9.5 13V11.75ZM0.5 11.5C0.5 11.1012 0.695825 10.7151 1.10507 10.3377C1.51773 9.95714 2.11313 9.62013 2.81201 9.34046C4.21059 8.78079 5.89745 8.5 7 8.5C7.31248 8.5 7.67343 8.52423 8.06391 8.57099C6.76875 9.67437 6.5 10.9329 6.5 11.75V13.5H1C0.726142 13.5 0.5 13.2739 0.5 13V11.5Z" fill="#EDEDED" stroke="black"/>
</svg>
